<svg xmlns="http://www.w3.org/2000/svg" class="icon icon-tabler icon-tabler-file-power" width="250px" height="250px" viewBox="0 0 24 24" stroke-width="1.57" stroke="rgba(1, 1, 1, 1)" fill="none" stroke-linecap="round" stroke-linejoin="round"><defs><filter id="smoothness-filter51" x="0" y="0" width="100%" height="100%"><feConvolveMatrix kernelMatrix="-1 -1 -1 -1 -7 -1 -1 -1 -1"/></filter></defs><rect x="0" y="0" width="100%" height="100%" stroke="none" stroke-width="0" fill="rgba(255, 255, 255, 1)" rx="5" ry="5"/><g transform="translate(2.40, 2.40) scale(0.8)" style="filter: url(&quot;#smoothness-filter51&quot;);"><path stroke="none" d="M0 0h24v24H0z" fill="none"/><path d="M14 3v4a1 1 0 0 0 1 1h4"/><path d="M17 21h-10a2 2 0 0 1 -2 -2v-14a2 2 0 0 1 2 -2h7l5 5v11a2 2 0 0 1 -2 2z"/><path d="M12 11l-2 3h4l-2 3"/></g>
  
  
  
  
</svg>